<?xml version="1.0" encoding="utf-8"?>
<?xml-stylesheet type="text/xsl" href="rss1.xsl"?>
<rss version="2.0" xmlns:atom="http://www.w3.org/2005/Atom" xmlns:content="http://purl.org/rss/1.0/modules/content/" xmlns:dc="http://purl.org/dc/elements/1.1/" xmlns:media="http://search.yahoo.com/mrss/">
<channel>
 <title>Getty</title>
 <link>http://www.gettyimg.com/</link>
 <atom:link href="http://www.gettyimg.com/" rel="self" type="application/rss+xml" />

 
                <item>
                <title><![CDATA[【Bugs!】Twice - I want You Back [Bugs!] (H.264/MP4)]]></title>
                <link><![CDATA[https://sharemania.us/threads/twice-i-want-you-back-bugs-h-264-mp4.235019/]]></link>
                <description><![CDATA[<article>
<blockquote class="messageText SelectQuoteContainer ugc baseHtml">
BIG THANKS to RESPECTIVE OWNERS <br>
<br>
<img src="https://i.imgur.com/hYnd5k3.jpg" class="bbCodeImage LbImage" alt="[​IMG]" data-url="https://i.imgur.com/hYnd5k3.jpg" style=""> <br>
<br>
<div class="bbCodeBlock bbCodeVfcHH HiddenContent">
<div class="attribution type">Hidden Content:</div>
<blockquote>You must reply before you can see the hidden data contained here.</blockquote>
</div>
<div class="messageTextEndMarker">&nbsp;</div>
</blockquote>
</article>]]></description>
                <author><![CDATA[Kim Min Jeong]]></author>
                </item>

                
                <item>
                <title><![CDATA[【Singles (lossless)】FLAC - Belinda Carlisle - Big Big Love FLAC]]></title>
                <link><![CDATA[https://sharemania.us/threads/belinda-carlisle-big-big-love-flac.235021/]]></link>
                <description><![CDATA[<article>
<blockquote class="messageText SelectQuoteContainer ugc baseHtml">
<br>
<a href="https://terabox.com/s/1vFaedHy6xDpm_p1ajyNqzg" target="_blank" class="externalLink" rel="nofollow">https://terabox.com/s/1vFaedHy6xDpm_p1ajyNqzg</a>
<div class="messageTextEndMarker">&nbsp;</div>
</blockquote>
</article>]]></description>
                <author><![CDATA[NESHCOO]]></author>
                </item>

                
                <item>
                <title><![CDATA[【Bugs!】Twice - Yes or Yes [RE UPLOAD Bugs!] (H.264/MP4)]]></title>
                <link><![CDATA[https://sharemania.us/threads/twice-yes-or-yes-re-upload-bugs-h-264-mp4.235020/]]></link>
                <description><![CDATA[<article>
<blockquote class="messageText SelectQuoteContainer ugc baseHtml">
BIG THANKS to RESPECTIVE OWNERS <br>
<br>
<img src="https://i.imgur.com/1WLzoOq.jpg" class="bbCodeImage LbImage" alt="[​IMG]" data-url="https://i.imgur.com/1WLzoOq.jpg" style=""> <br>
<br>
<div class="bbCodeBlock bbCodeVfcHH HiddenContent">
<div class="attribution type">Hidden Content:</div>
<blockquote>You must reply before you can see the hidden data contained here.</blockquote>
</div>
<div class="messageTextEndMarker">&nbsp;</div>
</blockquote>
</article>]]></description>
                <author><![CDATA[Kim Min Jeong]]></author>
                </item>

                
                <item>
                <title><![CDATA[【UPSCALED】Avril Lavigne - Complicated (1080p Upscale)]]></title>
                <link><![CDATA[https://sharemania.us/threads/avril-lavigne-complicated-1080p-upscale.235022/]]></link>
                <description><![CDATA[<article>
<blockquote class="messageText SelectQuoteContainer ugc baseHtml">
<img src="https://i.imgur.com/Jf7Ilkp.jpeg" class="bbCodeImage LbImage" alt="[​IMG]" data-url="https://i.imgur.com/Jf7Ilkp.jpeg" style=""> <br>
<br>
<div class="ToggleTriggerAnchor bbCodeSpoilerContainer">
<button type="button" class="button bbCodeSpoilerButton ToggleTrigger Tooltip JsOnly" data-target="> .SpoilerTarget"><span>Spoiler: <span class="SpoilerTitle">MediaInfo</span></span></button>
<div class="SpoilerTarget bbCodeSpoilerText">General<br>
Unique ID : 235462270819608282032153433183645257471 (0xB1246241AA9A78F4A442911B28AECEFF)<br>
Complete name : C:\Videos\upscales\01 - Complicated - Avril Lavigne(680x520 DivX)_prob3.mkv<br>
Format : Matroska<br>
Format version : Version 4<br>
File size : 787 MiB<br>
Duration : 4 min 13 s<br>
Overall bit rate : 26.1 Mb/s<br>
Writing application : Lavf60.14.101<br>
Writing library : Lavf60.14.101<br>
ErrorDetectionType : Per level 1<br>
SOFTWARE : VirtualDubMod 1.5.10.2 (build 2540/release)<br>
VIDEOAI : Enhanced using prob-3; mode: manual; revert compression at 100; recover details at 58; sharpen at 10; reduce noise at 48; dehalo at 0; anti-alias/deblur at 26; and recover original detail at 50. Changed resolution to 1920x1080<br>
<br>
Video<br>
ID : 1<br>
Format : AVC<br>
Format/Info : Advanced Video Codec<br>
Format profile : High@L4.2<br>
Format settings : CABAC / 1 Ref Frames<br>
Format settings, CABAC : Yes<br>
Format settings, Reference fra : 1 frame<br>
Format settings, GOP : M=1, N=30<br>
Codec ID : V_MPEG4/ISO/AVC<br>
Duration : 4 min 13 s<br>
Bit rate : 23.4 Mb/s<br>
Width : 1 920 pixels<br>
Height : 1 080 pixels<br>
Display aspect ratio : 16:9<br>
Frame rate mode : Constant<br>
Frame rate : 23.976 (24000/1001) FPS<br>
Standard : Component<br>
Color space : YUV<br>
Chroma subsampling : 4:2:0<br>
Bit depth : 8 bits<br>
Scan type : Progressive<br>
Bits/(Pixel*Frame) : 0.471<br>
Stream size : 707 MiB (90%)<br>
Writing library : Lavc60.27.101 h264_amf<br>
Default : No<br>
Forced : No<br>
Color range : Limited<br>
Matrix coefficients : BT.709<br>
<br>
Audio<br>
ID : 2<br>
Format : PCM<br>
Format settings : Little / Signed<br>
Codec ID : A_PCM/INT/LIT<br>
Duration : 4 min 13 s<br>
Bit rate mode : Constant<br>
Bit rate : 2 117 kb/s<br>
Channel(s) : 2 channels<br>
Sampling rate : 44.1 kHz<br>
Bit depth : 24 bits<br>
Delay relative to video : 51 ms<br>
Stream size : 63.9 MiB (8%)<br>
Writing library : Lavc60.27.101 pcm_s24le<br>
Default : No<br>
Forced : No</div>
</div><br>
<div class="bbCodeBlock bbCodeVfcHH HiddenContent">
<div class="attribution type">Hidden Content:</div>
<blockquote>You must reply before you can see the hidden data contained here.</blockquote>
</div>
<div class="messageTextEndMarker">&nbsp;</div>
</blockquote>
</article>]]></description>
                <author><![CDATA[Avril1255]]></author>
                </item>

                </channel></rss>